<?xml version="1.0" standalone="no"?>
<!DOCTYPE svg PUBLIC "-//W3C//DTD SVG 20010904//EN"
 "http://www.w3.org/TR/2001/REC-SVG-20010904/DTD/svg10.dtd">
<svg version="1.0" xmlns="http://www.w3.org/2000/svg"
 width="512.000000pt" height="512.000000pt" viewBox="0 0 512.000000 512.000000"
 preserveAspectRatio="xMidYMid meet">
<metadata>
Created by potrace 1.14, written by Peter Selinger 2001-2017
</metadata>
<g transform="translate(0.000000,512.000000) scale(0.100000,-0.100000)"
fill="#000000" stroke="none">
<path d="M2389 4735 c-2 -2 -29 -6 -59 -9 -30 -2 -70 -7 -88 -10 -18 -3 -51
-8 -74 -11 -79 -12 -263 -63 -362 -100 -102 -38 -279 -121 -331 -155 -16 -11
-37 -23 -45 -27 -14 -6 -122 -77 -145 -95 -280 -218 -454 -409 -612 -673 -31
-51 -133 -263 -133 -276 0 -8 -7 -27 -15 -43 -31 -59 -96 -292 -111 -396 -3
-19 -7 -42 -10 -50 -32 -92 -23 -578 13 -720 3 -14 5 -29 4 -33 -1 -5 7 -41
18 -81 11 -40 22 -83 24 -97 9 -48 90 -256 139 -359 165 -343 410 -621 765
-868 18 -12 37 -22 43 -22 5 0 10 -4 10 -9 0 -11 303 -162 355 -177 6 -2 51
-17 100 -34 50 -18 99 -34 110 -36 11 -2 56 -12 100 -23 151 -37 248 -46 475
-46 166 0 375 14 375 25 0 1 15 3 34 6 18 2 61 11 95 20 33 9 69 17 78 19 93
19 333 117 467 192 51 29 97 53 101 53 5 0 10 3 12 8 5 10 66 52 77 52 5 0 11
3 13 8 2 4 28 25 58 47 56 41 82 61 130 105 15 14 36 32 46 41 23 19 160 164
192 203 13 15 50 64 83 109 32 45 64 87 69 94 6 7 10 14 10 17 0 3 12 22 26
43 40 59 148 287 187 398 36 101 83 276 91 337 3 18 5 33 6 33 2 0 5 23 17
120 16 134 9 477 -11 575 -3 14 -8 43 -10 64 -6 44 -50 219 -71 282 -109 325
-296 627 -535 864 -133 131 -227 207 -375 302 -67 43 -248 144 -252 140 -2 0
-28 10 -58 23 -31 14 -62 25 -69 25 -8 0 -16 4 -18 8 -4 11 -233 78 -328 97
-69 13 -94 17 -175 31 -36 6 -431 15 -436 9z"/>
</g>
</svg>
